<svg width="300" height="21" viewBox="0 0 300 21" fill="none" xmlns="http://www.w3.org/2000/svg">
<path d="M1.40909 15V3.36362H8.38636V4.61362H2.81818V8.54544H7.86364V9.79544H2.81818V15H1.40909ZM10.7997 15V3.36362H14.8679C15.6785 3.36362 16.3471 3.50377 16.8736 3.78408C17.4001 4.06059 17.7921 4.4337 18.0497 4.90339C18.3073 5.3693 18.4361 5.88635 18.4361 6.45453C18.4361 6.95453 18.3471 7.36741 18.169 7.69317C17.9948 8.01892 17.7637 8.2765 17.4759 8.46589C17.1918 8.65529 16.883 8.79544 16.5497 8.88635V8.99998C16.9058 9.02271 17.2637 9.14771 17.6236 9.37498C17.9834 9.60226 18.2846 9.92801 18.527 10.3523C18.7694 10.7765 18.8906 11.2954 18.8906 11.9091C18.8906 12.4924 18.758 13.017 18.4929 13.4829C18.2277 13.9488 17.8092 14.3182 17.2372 14.5909C16.6652 14.8636 15.9209 15 15.0043 15H10.7997ZM12.2088 13.75H15.0043C15.9247 13.75 16.5781 13.572 16.9645 13.2159C17.3546 12.856 17.5497 12.4204 17.5497 11.9091C17.5497 11.5151 17.4493 11.1515 17.2486 10.8182C17.0478 10.481 16.7618 10.2121 16.3906 10.0113C16.0194 9.8068 15.58 9.70453 15.0724 9.70453H12.2088V13.75ZM12.2088 8.47726H14.8224C15.2467 8.47726 15.6293 8.39392 15.9702 8.22726C16.3149 8.06059 16.5876 7.82574 16.7884 7.52271C16.9929 7.21968 17.0952 6.86362 17.0952 6.45453C17.0952 5.94317 16.9171 5.50945 16.5611 5.15339C16.205 4.79355 15.6406 4.61362 14.8679 4.61362H12.2088V8.47726ZM30.4332 3.36362V15H29.0696L22.7287 5.86362H22.6151V15H21.206V3.36362H22.5696L28.9332 12.5227H29.0469V3.36362H30.4332Z" fill="#959595"/>
<path d="M32.8551 15V3.36362H37.446C38.3286 3.36362 39.0805 3.53218 39.7017 3.8693C40.3229 4.20264 40.7964 4.66665 41.1222 5.26135C41.4517 5.85226 41.6165 6.53408 41.6165 7.3068C41.6165 8.07953 41.4498 8.76135 41.1165 9.35226C40.7831 9.94317 40.3002 10.4034 39.6676 10.7329C39.0388 11.0625 38.2775 11.2273 37.3835 11.2273H34.4574V9.25567H36.9858C37.4593 9.25567 37.8494 9.17423 38.1562 9.01135C38.4669 8.84468 38.6979 8.61551 38.8494 8.32385C39.0047 8.02839 39.0824 7.68938 39.0824 7.3068C39.0824 6.92044 39.0047 6.58332 38.8494 6.29544C38.6979 6.00377 38.4669 5.77839 38.1562 5.6193C37.8456 5.45642 37.4517 5.37498 36.9744 5.37498H35.3153V15H32.8551ZM43.8764 15H41.2401L45.2571 3.36362H48.4276L52.4389 15H49.8026L46.8878 6.02271H46.7969L43.8764 15ZM43.7116 10.4261H49.9389V12.3466H43.7116V10.4261ZM51.9702 3.36362H54.7259L57.3793 8.37498H57.4929L60.1463 3.36362H62.902L58.6577 10.8863V15H56.2145V10.8863L51.9702 3.36362Z" fill="white"/>
<path fill-rule="evenodd" clip-rule="evenodd" d="M73.2028 13.8617L73.1995 13.8662L73.1963 13.8707C73.0183 14.1227 72.6196 14.1968 72.3077 13.9765C72.0581 13.8002 71.9831 13.4074 72.1957 13.097C72.5128 12.6927 72.7431 12.2201 72.8944 11.7581C73.0519 11.2771 73.1251 10.7305 73.1223 10.1944C73.1194 9.65838 73.0404 9.11262 72.8778 8.63333C72.7216 8.17295 72.4862 7.7028 72.1648 7.30194C71.9489 6.99377 72.0198 6.60017 72.2675 6.42122C72.577 6.19769 72.9765 6.26749 73.1571 6.51761L73.1604 6.5221L73.1637 6.5265C73.5638 7.05405 73.8919 7.64018 74.088 8.21523C74.2944 8.89171 74.4259 9.54608 74.4293 10.1875C74.4329 10.8624 74.3684 11.5013 74.1207 12.1302C73.851 12.8151 73.5898 13.34 73.2028 13.8617ZM76.0954 15.1145L76.1032 15.1034L76.1104 15.0919C76.9971 13.6713 77.5085 11.957 77.499 10.1711C77.4895 8.3857 76.9601 6.67737 76.0587 5.26646C75.8634 4.95669 75.9511 4.59045 76.2804 4.35261C76.5015 4.19288 76.9166 4.24944 77.1629 4.57952C78.1806 6.19416 78.7953 8.146 78.8061 10.1642C78.8172 12.2512 78.2238 14.1397 77.2224 15.7661C76.9908 16.085 76.6361 16.1743 76.3303 15.9936C75.9988 15.7507 75.9382 15.337 76.0954 15.1145ZM81.2861 2.45724L81.2948 2.47449L81.3049 2.49097C82.6839 4.73919 83.4502 7.33243 83.4652 10.1394C83.4801 12.945 82.7421 15.5451 81.3884 17.8072C81.1808 18.1409 80.8304 18.235 80.4752 18.0697C80.1519 17.859 80.065 17.5098 80.2339 17.1571C81.3852 15.1125 82.1011 12.703 82.0875 10.1467C82.074 7.60176 81.4085 5.19618 80.1569 3.15136C79.9875 2.80221 80.0714 2.45448 80.3909 2.24137C80.7763 2.05725 81.1518 2.1922 81.2861 2.45724ZM85.3691 0.317663L85.3751 0.329447L85.3817 0.340883C87.0528 3.22941 88.0346 6.53184 88.0536 10.1149C88.0727 13.6943 87.1281 17.0039 85.491 19.9079C85.2831 20.2378 84.9343 20.3302 84.5808 20.1656C84.2585 19.9556 84.1712 19.608 84.3379 19.2564C85.915 16.5648 86.7643 13.4463 86.7466 10.1219C86.7288 6.78887 85.7717 3.68251 84.2427 1.0174C84.0511 0.628355 84.1861 0.247321 84.4535 0.111831C84.846 -0.0870443 85.2325 0.0479557 85.3691 0.317663Z" fill="white"/>
</svg>
